<?xml version="1.0" encoding="utf-8"?>
<!-- Generator: Adobe Illustrator 19.0.0, SVG Export Plug-In . SVG Version: 6.00 Build 0)  -->
<svg version="1.1" id="Layer_1" xmlns="http://www.w3.org/2000/svg" xmlns:xlink="http://www.w3.org/1999/xlink" x="0px" y="0px"
	 viewBox="0 0 96 96" style="enable-background:new 0 0 96 96;" xml:space="preserve">
<style type="text/css">
	.st0{fill:#333333;}
</style>
<g id="XMLID_2_">
	<path id="XMLID_6_" class="st0" d="M18.9,21.7c-1.9,0-3.4,1.5-3.4,3.4c0,1.9,1.5,3.4,3.4,3.4h4.3L31.1,61c-0.3,0.2-0.6,0.4-0.9,0.6
		c-2,1.2-3.3,3.4-3.3,5.8c0,3.8,3.1,6.9,6.9,6.9c3.8,0,6.9-3.1,6.9-6.9H59c0,3.8,3.1,6.9,6.9,6.9s6.9-3.1,6.9-6.9
		c0-2.5-1.3-4.7-3.3-5.9c-0.6-0.6-1.5-1-2.4-1H38l0-0.2l-8.5-35.6c-0.1-0.4-0.3-0.7-0.5-1l-0.1-0.2l0,0c-0.6-1.1-1.7-1.9-3-1.9H18.9
		z M36.8,28.6l4.9,22.9h29.8l8.9-22.9H36.8z"/>
</g>
</svg>
